<?xml version="1.0" encoding="UTF-8" standalone="no"?>
<!DOCTYPE svg PUBLIC "-//W3C//DTD SVG 1.1//EN" "http://www.w3.org/Graphics/SVG/1.1/DTD/svg11.dtd">
<svg width="100%" height="100%" viewBox="0 0 158 64" version="1.1" xmlns="http://www.w3.org/2000/svg" xmlns:xlink="http://www.w3.org/1999/xlink" xml:space="preserve" xmlns:serif="http://www.serif.com/" style="fill-rule:evenodd;clip-rule:evenodd;">
    <g transform="matrix(1,0,0,1,-271,-221)">
        <g id="logo_imdb" transform="matrix(2.46875,0,0,1.02705,-154.043,-6.89339)">
            <rect x="172.169" y="221.891" width="64" height="62.314" style="fill:none;"/>
            <clipPath id="_clip1">
                <rect x="172.169" y="221.891" width="64" height="62.314"/>
            </clipPath>
            <g clip-path="url(#_clip1)">
                <g id="g5jjnq26yS" transform="matrix(0.405063,0,0,0.97366,62.3973,6.71181)">
                    <path d="M271,221.962L287.376,221.962L287.376,285L271,285L271,221.962ZM392.063,284.038L406.806,284.038C407.419,281.63 407.757,280.291 407.825,280.022C409.16,281.637 410.628,282.85 412.239,283.654C413.843,284.462 416.244,284.864 418.103,284.864C420.691,284.864 422.923,284.185 424.807,282.825C426.688,281.469 427.887,279.861 428.396,278.013C428.906,276.161 429.161,273.347 429.161,269.564L429.161,251.878C429.161,248.074 429.075,245.591 428.906,244.424C428.737,243.258 428.235,242.07 427.399,240.854C426.562,239.637 425.346,238.693 423.752,238.018C422.159,237.344 420.278,237.006 418.111,237.006C416.226,237.006 413.815,237.383 412.207,238.126C410.603,238.869 409.146,239.996 407.839,241.507L407.839,221L392.063,221L392.063,284.038ZM349.291,284.587L349.291,221.549L361.507,221.549C369.435,221.549 373.993,221.915 376.789,222.64C379.581,223.365 381.705,224.557 383.162,226.215C384.616,227.873 385.524,229.721 385.89,231.756C386.252,233.787 386.486,237.785 386.486,243.75L386.486,265.886C386.486,271.538 386.17,275.317 385.635,277.219C385.104,279.125 384.174,280.614 382.85,281.691C381.522,282.764 379.886,283.518 377.937,283.945C376.679,284.223 373.884,284.43 369.554,284.574L369.13,284.587L349.291,284.587ZM314.071,221.909C314.678,225.648 315.311,230.003 315.975,234.986C316.13,236.052 316.912,241.392 318.319,250.999L322.112,221.549L343.506,221.549L343.506,284.587L329.208,284.587L329.154,242.038L323.43,284.587L313.212,284.587L307.176,242.964L307.125,284.587L292.781,284.587L292.781,221.549L314.012,221.549L314.071,221.909ZM412.907,274.524C412.605,275.324 411.285,275.73 410.287,275.73C409.311,275.73 408.661,275.342 408.331,274.564C408.001,273.788 407.839,272.019 407.839,269.249L407.839,252.589C407.839,249.718 407.983,247.927 408.274,247.213C408.561,246.506 409.192,246.147 410.169,246.147C411.166,246.147 412.505,246.553 412.849,247.367C413.19,248.182 413.363,249.923 413.363,252.589L413.363,268.742C413.259,272.062 413.108,273.989 412.907,274.524ZM365.652,232.33L365.652,273.709L365.762,273.709C368.048,273.695 369.461,273.225 369.998,272.292C370.54,271.344 370.813,268.775 370.813,264.579L370.813,240.139C370.813,237.29 370.72,235.467 370.54,234.663C370.361,233.859 369.945,233.27 369.299,232.893C368.663,232.526 367.474,232.336 365.736,232.33L365.652,232.33Z" style="fill-rule:nonzero;stroke:black;stroke-opacity:0;stroke-width:1px;"/>
                </g>
            </g>
        </g>
    </g>
</svg>
